<?xml version="1.0" encoding="UTF-8"?><svg id="Layer_1" xmlns="http://www.w3.org/2000/svg" viewBox="0 0 1024 1024"><defs><style>.cls-1{fill:#e8fd79;}</style></defs><rect width="1024" height="1024" rx="92.44" ry="92.44"/><path class="cls-1" d="m398.76,229.08c3.84,1.37,15.74,10.76,19.89,13.63,67.2,46.57,145.36,36.82,207-14.22,2.68,34.75,15.57,71.57,36.46,99.56,34.2,45.83,80.52,64.35,135.67,71.97-57.1,73.8-56.48,151.86-.36,226.61-104.47,15.57-151.2,63.66-171,165.64-.47,1.96-.03,1.11-1.28,2.59-5.39-.55-14.45-9.34-19.68-12.25-7.53-4.19-14.7-8.52-22.57-12.21-14.34-6.62-29.5-11.31-45.08-13.93-54.75-9.04-96.08,10.43-139.17,41.09-3.17-31.84-11.29-60.44-27.87-87.87-23.82-39.41-60.17-63.04-103.93-75.6-12.44-3.57-24.47-5.76-37.05-8.82,3.41-7.13,11.71-18.91,16.17-26.31,12.46-21.12,20.25-44.67,22.83-69.07,5.24-48.52-11.48-92.63-41.57-129.92,31.66-1.72,75.57-16.93,100.46-36.75,46.97-37.4,63.3-76.94,71.06-134.15Zm123.77,364.45c45.58-5.44,78.1-46.84,72.59-92.41-5.51-45.57-46.95-78.03-92.51-72.46-45.48,5.56-77.85,46.9-72.36,92.38,5.5,45.48,46.79,77.92,92.28,72.49Z"/><path class="cls-1" d="m721.19,159.24c24.28-3.01,52.08,1.9,74.17,12.38,29.34,14.18,51.86,39.42,62.61,70.18,17.51,50.47,3.11,92.73-18.71,138.27,21.59,3.31,46.3,11.58,65.11,22.35,29.47,16.74,50.86,44.75,59.26,77.59,8.75,32.8,4.07,67.73-13.02,97.07-27.22,46.36-63.53,57.11-111.58,69.83,23.93,48.18,38.85,97.26,14.16,149.06-14.58,30.96-40.97,54.79-73.26,66.14-49.75,17.25-90.13.81-134.49-20.74-5.13,23.45-11.23,46.01-23.68,66.74-38.27,63.73-113.93,80.4-176.78,43.03-45.63-28.92-53.96-63.27-65.75-111.1,21.67-14.57,55.24-31.48,79.73-38.52,43.18-12.44,89.36-9.32,130.48,8.82,17.99,7.75,38.58,19.7,56.02,29.29,7.34-35.67,14.51-67.93,33.76-99.18,40.27-65.38,90.93-77.5,158.85-94.07-12.28-29.32-27.53-50.68-36.67-83.44-19.87-71.23,4.81-123.41,37.97-183.73-100.45-15.29-165.64-63.54-187.2-166.06-1.9-9.05-3.86-18.28-5.74-27.35,26.7-14.27,43.87-22.36,74.75-26.57Z"/><path class="cls-1" d="m185.89,379.79c-28.17-53.91-42.37-110.63-6.13-165.31,18.47-28.04,47.54-47.37,80.54-53.58,39.41-7.65,85.59,3.77,118.71,25.89-2.82,8.09-5.89,24.39-8.02,33.58-5.56,25.13-15.61,49.05-29.66,70.61-39.26,59.87-90.82,75.2-156.08,88.63,9.75,23.74,23.48,40.23,32.75,68.73,26.81,82.39,2.38,128.01-31.64,198.4-37.99-8.24-66.97-16.8-94.53-45.33-17.47-16.78-30.32-43.99-34.15-67.75-5.44-33.79,2.77-68.37,22.82-96.11,19.94-27.46,47.41-41.62,79.24-51.07,8.65-2.57,17.2-5.33,26.14-6.69Z"/><path class="cls-1" d="m379.02,186.78c-.25-3.15,1.86-9.2,2.5-12.7,11.75-63.88,55.59-116.43,123.51-120.66,49.99-3.11,91.55,22.95,117.68,64.27,11.94,21.68,18.34,43.28,22.12,67.67-59.29,36.98-104.74,56.3-178.32,40.95-34.39-7.18-57.61-25.32-87.5-39.52Z"/><path class="cls-1" d="m186.33,646.83c25.32,3.22,64.61,15.23,87.26,26.68,52.05,26.32,78.8,70.97,95.27,125.32,3.62,11.95,6.57,29.39,9.88,39.18l.6,1.73c-9.79,6.57-28.36,15.03-39.1,19.08-1.81.68-3.63,1.33-5.46,1.96-35.26,12.04-72.13,11.64-105.79-5.21-30.3-15.39-53.33-42.1-64.09-74.34-16.81-50.58-.78-90.2,21.43-134.41Z"/></svg>